<svg width="10" height="18" viewBox="0 0 10 18" fill="none" xmlns="http://www.w3.org/2000/svg">
<path d="M7.03277 8.78493L0.427156 2.17933C0.202476 1.95465 0.0937306 1.68862 0.10092 1.38126C0.10811 1.0739 0.224345 0.808175 0.449625 0.584094C0.674904 0.360012 0.940926 0.247672 1.24769 0.247073C1.55445 0.246474 1.82018 0.358814 2.04486 0.584094L8.94255 7.50426C9.1223 7.684 9.2571 7.88621 9.34698 8.11089C9.43685 8.33557 9.48178 8.56025 9.48178 8.78493C9.48178 9.00961 9.43685 9.2343 9.34698 9.45898C9.2571 9.68366 9.1223 9.88587 8.94255 10.0656L2.02239 16.9858C1.79771 17.2105 1.53558 17.3192 1.23601 17.312C0.936432 17.3048 0.674305 17.1886 0.449625 16.9633C0.224944 16.738 0.112604 16.472 0.112604 16.1652C0.112604 15.8585 0.224944 15.5928 0.449625 15.3681L7.03277 8.78493Z" fill="#DDDDDD" fill-opacity="0.866667"/>
</svg>
