<svg width="20" height="20" viewBox="0 0 20 20" fill="none" xmlns="http://www.w3.org/2000/svg">
<path d="M14.1666 10.8335L10.8333 18.3335C10.1702 18.3335 9.53433 18.0701 9.06548 17.6013C8.59664 17.1324 8.33325 16.4965 8.33325 15.8335V12.5002H3.61659C3.375 12.5029 3.1357 12.4531 2.91528 12.3541C2.69485 12.2552 2.49857 12.1096 2.34004 11.9272C2.1815 11.7449 2.0645 11.5303 1.99714 11.2983C1.92977 11.0663 1.91366 10.8224 1.94992 10.5835L3.09992 3.0835C3.16019 2.68608 3.36206 2.32382 3.66833 2.06349C3.9746 1.80316 4.36464 1.66229 4.76659 1.66683H14.1666M14.1666 10.8335V1.66683M14.1666 10.8335H16.6666C17.1086 10.8335 17.5325 10.6579 17.8451 10.3453C18.1577 10.0328 18.3333 9.60886 18.3333 9.16683V3.3335C18.3333 2.89147 18.1577 2.46755 17.8451 2.15499C17.5325 1.84242 17.1086 1.66683 16.6666 1.66683H14.1666" stroke="white" stroke-linecap="round" stroke-linejoin="round"/>
</svg>
