<svg width="41" height="42" viewBox="0 0 41 42" fill="none" xmlns="http://www.w3.org/2000/svg">
<g filter="url(#filter0_d_113_428)">
<path d="M19.3333 7.62963V7.22222C19.3333 6.89807 19.4562 6.58719 19.675 6.35798C19.8938 6.12877 20.1906 6 20.5 6C20.8094 6 21.1062 6.12877 21.325 6.35798C21.5437 6.58719 21.6667 6.89807 21.6667 7.22222V7.62963C21.6667 7.95378 21.5437 8.26466 21.325 8.49387C21.1062 8.72308 20.8094 8.85185 20.5 8.85185C20.1906 8.85185 19.8938 8.72308 19.675 8.49387C19.4562 8.26466 19.3333 7.95378 19.3333 7.62963ZM27.1111 17C27.1111 18.3698 26.7234 19.7089 25.9969 20.8478C25.2705 21.9868 24.238 22.8745 23.03 23.3987C21.8219 23.9229 20.4927 24.0601 19.2102 23.7928C17.9278 23.5256 16.7498 22.866 15.8252 21.8974C14.9007 20.9288 14.271 19.6947 14.0159 18.3512C13.7608 17.0077 13.8918 15.6151 14.3921 14.3496C14.8925 13.084 15.7399 12.0023 16.8271 11.2413C17.9143 10.4803 19.1924 10.0741 20.5 10.0741C22.2528 10.076 23.9333 10.8063 25.1728 12.1047C26.4122 13.4032 27.1093 15.1637 27.1111 17ZM24.7778 17C24.7778 16.1136 24.5269 15.2472 24.0568 14.5102C23.5868 13.7732 22.9187 13.1988 22.137 12.8597C21.3554 12.5205 20.4953 12.4317 19.6654 12.6046C18.8356 12.7775 18.0734 13.2044 17.4752 13.8311C16.8769 14.4579 16.4695 15.2564 16.3044 16.1257C16.1394 16.995 16.2241 17.8961 16.5478 18.715C16.8716 19.5339 17.4199 20.2338 18.1234 20.7262C18.8269 21.2186 19.6539 21.4815 20.5 21.4815C21.6341 21.4801 22.7215 21.0075 23.5234 20.1674C24.3254 19.3272 24.7765 18.1881 24.7778 17ZM13.0635 10.9388C13.172 11.0525 13.3008 11.1427 13.4426 11.2042C13.5844 11.2657 13.7364 11.2974 13.8899 11.2974C14.0433 11.2974 14.1953 11.2657 14.3371 11.2042C14.4789 11.1427 14.6077 11.0525 14.7163 10.9388C14.8248 10.8251 14.9109 10.6901 14.9696 10.5416C15.0283 10.393 15.0586 10.2338 15.0586 10.0731C15.0586 9.91227 15.0283 9.75306 14.9696 9.60452C14.9109 9.45598 14.8248 9.32101 14.7163 9.20731L14.3274 8.79991C14.1082 8.5703 13.8109 8.44131 13.501 8.44131C13.191 8.44131 12.8938 8.5703 12.6746 8.79991C12.4554 9.02952 12.3323 9.34093 12.3323 9.66565C12.3323 9.99036 12.4554 10.3018 12.6746 10.5314L13.0635 10.9388ZM13.0635 23.0592L12.6746 23.4666C12.5661 23.5803 12.48 23.7152 12.4212 23.8638C12.3625 24.0123 12.3323 24.1715 12.3323 24.3323C12.3323 24.4931 12.3625 24.6523 12.4212 24.8008C12.48 24.9494 12.5661 25.0844 12.6746 25.1981C12.8938 25.4277 13.191 25.5567 13.501 25.5567C13.6544 25.5567 13.8064 25.525 13.9482 25.4635C14.09 25.4019 14.2188 25.3117 14.3274 25.1981L14.7163 24.7906C14.9354 24.561 15.0586 24.2496 15.0586 23.9249C15.0586 23.6002 14.9354 23.2888 14.7163 23.0592C14.4971 22.8296 14.1998 22.7006 13.8899 22.7006C13.5799 22.7006 13.2826 22.8296 13.0635 23.0592ZM27.1111 11.2963C27.2644 11.2964 27.4161 11.2649 27.5578 11.2036C27.6994 11.1422 27.8281 11.0523 27.9365 10.9388L28.3254 10.5314C28.5446 10.3018 28.6677 9.99036 28.6677 9.66565C28.6677 9.34093 28.5446 9.02952 28.3254 8.79991C28.1062 8.5703 27.809 8.44131 27.499 8.44131C27.1891 8.44131 26.8918 8.5703 26.6726 8.79991L26.2838 9.20731C26.1196 9.37826 26.0077 9.59649 25.9623 9.83425C25.9169 10.072 25.94 10.3185 26.0287 10.5425C26.1174 10.7664 26.2677 10.9577 26.4604 11.0919C26.6532 11.2262 26.8797 11.2973 27.1111 11.2963ZM27.9365 23.0612C27.7174 22.8316 27.4201 22.7026 27.1101 22.7026C26.8002 22.7026 26.5029 22.8316 26.2838 23.0612C26.0646 23.2908 25.9414 23.6022 25.9414 23.9269C25.9414 24.2517 26.0646 24.5631 26.2838 24.7927L26.6726 25.2001C26.8918 25.4297 27.1891 25.5587 27.499 25.5587C27.809 25.5587 28.1062 25.4297 28.3254 25.2001C28.5446 24.9705 28.6677 24.6591 28.6677 24.3344C28.6677 24.0096 28.5446 23.6982 28.3254 23.4686L27.9365 23.0612ZM12.7222 17C12.7222 16.6758 12.5993 16.365 12.3805 16.1358C12.1617 15.9065 11.865 15.7778 11.5556 15.7778H11.1667C10.8572 15.7778 10.5605 15.9065 10.3417 16.1358C10.1229 16.365 10 16.6758 10 17C10 17.3242 10.1229 17.635 10.3417 17.8642C10.5605 18.0935 10.8572 18.2222 11.1667 18.2222H11.5556C11.865 18.2222 12.1617 18.0935 12.3805 17.8642C12.5993 17.635 12.7222 17.3242 12.7222 17ZM20.5 25.1481C20.1906 25.1481 19.8938 25.2769 19.675 25.5061C19.4562 25.7353 19.3333 26.0462 19.3333 26.3704V26.7778C19.3333 27.1019 19.4562 27.4128 19.675 27.642C19.8938 27.8712 20.1906 28 20.5 28C20.8094 28 21.1062 27.8712 21.325 27.642C21.5437 27.4128 21.6667 27.1019 21.6667 26.7778V26.3704C21.6667 26.0462 21.5437 25.7353 21.325 25.5061C21.1062 25.2769 20.8094 25.1481 20.5 25.1481ZM29.8333 15.7778H29.4444C29.135 15.7778 28.8383 15.9065 28.6195 16.1358C28.4007 16.365 28.2778 16.6758 28.2778 17C28.2778 17.3242 28.4007 17.635 28.6195 17.8642C28.8383 18.0935 29.135 18.2222 29.4444 18.2222H29.8333C30.1428 18.2222 30.4395 18.0935 30.6583 17.8642C30.8771 17.635 31 17.3242 31 17C31 16.6758 30.8771 16.365 30.6583 16.1358C30.4395 15.9065 30.1428 15.7778 29.8333 15.7778Z" fill="#F8F8F8"/>
</g>
<defs>
<filter id="filter0_d_113_428" x="0" y="0" width="41" height="42" filterUnits="userSpaceOnUse" color-interpolation-filters="sRGB">
<feFlood flood-opacity="0" result="BackgroundImageFix"/>
<feColorMatrix in="SourceAlpha" type="matrix" values="0 0 0 0 0 0 0 0 0 0 0 0 0 0 0 0 0 0 127 0" result="hardAlpha"/>
<feOffset dy="4"/>
<feGaussianBlur stdDeviation="5"/>
<feComposite in2="hardAlpha" operator="out"/>
<feColorMatrix type="matrix" values="0 0 0 0 0 0 0 0 0 0 0 0 0 0 0 0 0 0 0.48 0"/>
<feBlend mode="normal" in2="BackgroundImageFix" result="effect1_dropShadow_113_428"/>
<feBlend mode="normal" in="SourceGraphic" in2="effect1_dropShadow_113_428" result="shape"/>
</filter>
</defs>
</svg>
